<mxfile host="app.diagrams.net" modified="2023-08-17T04:47:16.058Z" agent="Mozilla/5.0 (Windows NT 10.0; Win64; x64) AppleWebKit/537.36 (KHTML, like Gecko) Chrome/115.0.0.0 Safari/537.36" etag="lLXv58izDT81hGZzdXW6" version="21.6.6" type="github">
  <diagram name="Page-1" id="AMdTN5NCC2OrVXPeTe_s">
    <mxGraphModel dx="1050" dy="534" grid="1" gridSize="10" guides="1" tooltips="1" connect="1" arrows="1" fold="1" page="1" pageScale="1" pageWidth="827" pageHeight="1169" math="0" shadow="0">
      <root>
        <mxCell id="0" />
        <mxCell id="1" parent="0" />
        <mxCell id="tb3_ySviJ2jezQwSwSDo-1" value="Client" style="rounded=0;whiteSpace=wrap;html=1;" vertex="1" parent="1">
          <mxGeometry x="370" y="50" width="120" height="60" as="geometry" />
        </mxCell>
        <mxCell id="tb3_ySviJ2jezQwSwSDo-2" value="Client &lt;br&gt;Partner&lt;br&gt;(ClientCRS)" style="rounded=0;whiteSpace=wrap;html=1;" vertex="1" parent="1">
          <mxGeometry x="50" y="50" width="120" height="60" as="geometry" />
        </mxCell>
        <mxCell id="tb3_ySviJ2jezQwSwSDo-3" value="Staff" style="rounded=0;whiteSpace=wrap;html=1;" vertex="1" parent="1">
          <mxGeometry x="650" y="260" width="120" height="60" as="geometry" />
        </mxCell>
        <mxCell id="tb3_ySviJ2jezQwSwSDo-4" value="" style="endArrow=classic;html=1;rounded=0;exitX=1;exitY=0.5;exitDx=0;exitDy=0;entryX=0;entryY=0.5;entryDx=0;entryDy=0;" edge="1" parent="1" source="tb3_ySviJ2jezQwSwSDo-2" target="tb3_ySviJ2jezQwSwSDo-1">
          <mxGeometry width="50" height="50" relative="1" as="geometry">
            <mxPoint x="390" y="300" as="sourcePoint" />
            <mxPoint x="440" y="250" as="targetPoint" />
          </mxGeometry>
        </mxCell>
        <mxCell id="tb3_ySviJ2jezQwSwSDo-5" value="" style="endArrow=classic;html=1;rounded=0;entryX=0;entryY=0.75;entryDx=0;entryDy=0;exitX=0.75;exitY=1;exitDx=0;exitDy=0;" edge="1" parent="1" source="tb3_ySviJ2jezQwSwSDo-1" target="tb3_ySviJ2jezQwSwSDo-3">
          <mxGeometry width="50" height="50" relative="1" as="geometry">
            <mxPoint x="590" y="350" as="sourcePoint" />
            <mxPoint x="640" y="300" as="targetPoint" />
            <Array as="points" />
          </mxGeometry>
        </mxCell>
        <mxCell id="tb3_ySviJ2jezQwSwSDo-7" value="WIP" style="edgeLabel;html=1;align=center;verticalAlign=middle;resizable=0;points=[];" vertex="1" connectable="0" parent="tb3_ySviJ2jezQwSwSDo-5">
          <mxGeometry x="-0.1331" y="-2" relative="1" as="geometry">
            <mxPoint as="offset" />
          </mxGeometry>
        </mxCell>
        <mxCell id="tb3_ySviJ2jezQwSwSDo-10" style="edgeStyle=orthogonalEdgeStyle;rounded=0;orthogonalLoop=1;jettySize=auto;html=1;exitX=0.5;exitY=0;exitDx=0;exitDy=0;entryX=0.5;entryY=1;entryDx=0;entryDy=0;fillColor=#f8cecc;strokeColor=#b85450;strokeWidth=5;" edge="1" parent="1" source="tb3_ySviJ2jezQwSwSDo-8" target="tb3_ySviJ2jezQwSwSDo-3">
          <mxGeometry relative="1" as="geometry" />
        </mxCell>
        <mxCell id="tb3_ySviJ2jezQwSwSDo-8" value="Reporting Manager" style="rounded=0;whiteSpace=wrap;html=1;" vertex="1" parent="1">
          <mxGeometry x="414" y="440" width="120" height="60" as="geometry" />
        </mxCell>
        <mxCell id="tb3_ySviJ2jezQwSwSDo-14" value="" style="endArrow=classic;html=1;rounded=0;exitX=0.25;exitY=1;exitDx=0;exitDy=0;" edge="1" parent="1" source="tb3_ySviJ2jezQwSwSDo-1" target="tb3_ySviJ2jezQwSwSDo-15">
          <mxGeometry width="50" height="50" relative="1" as="geometry">
            <mxPoint x="390" y="300" as="sourcePoint" />
            <mxPoint x="260" y="270" as="targetPoint" />
          </mxGeometry>
        </mxCell>
        <mxCell id="tb3_ySviJ2jezQwSwSDo-15" value="WIP, Invoice, Payment (Fact)" style="rounded=0;whiteSpace=wrap;html=1;" vertex="1" parent="1">
          <mxGeometry x="110" y="340" width="190" height="110" as="geometry" />
        </mxCell>
        <mxCell id="tb3_ySviJ2jezQwSwSDo-18" value="Page Staff: cùng số&lt;br&gt;và show hết những staff làm việc cho client đứng duới client partner" style="rounded=0;whiteSpace=wrap;html=1;" vertex="1" parent="1">
          <mxGeometry x="520" y="10" width="210" height="70" as="geometry" />
        </mxCell>
        <mxCell id="tb3_ySviJ2jezQwSwSDo-19" value="" style="endArrow=classic;html=1;rounded=0;exitX=-0.007;exitY=0.393;exitDx=0;exitDy=0;exitPerimeter=0;entryX=1;entryY=0.5;entryDx=0;entryDy=0;fillColor=#f8cecc;strokeColor=#b85450;strokeWidth=5;" edge="1" parent="1" source="tb3_ySviJ2jezQwSwSDo-3" target="tb3_ySviJ2jezQwSwSDo-15">
          <mxGeometry width="50" height="50" relative="1" as="geometry">
            <mxPoint x="390" y="300" as="sourcePoint" />
            <mxPoint x="440" y="250" as="targetPoint" />
          </mxGeometry>
        </mxCell>
        <mxCell id="tb3_ySviJ2jezQwSwSDo-20" value="Project, ServiceCode, WorkStep" style="rounded=0;whiteSpace=wrap;html=1;" vertex="1" parent="1">
          <mxGeometry x="40" y="180" width="130" height="60" as="geometry" />
        </mxCell>
        <mxCell id="tb3_ySviJ2jezQwSwSDo-21" value="" style="endArrow=classic;html=1;rounded=0;exitX=0.4;exitY=-0.047;exitDx=0;exitDy=0;exitPerimeter=0;entryX=0.5;entryY=1;entryDx=0;entryDy=0;" edge="1" parent="1" source="tb3_ySviJ2jezQwSwSDo-15" target="tb3_ySviJ2jezQwSwSDo-20">
          <mxGeometry width="50" height="50" relative="1" as="geometry">
            <mxPoint x="390" y="300" as="sourcePoint" />
            <mxPoint x="440" y="250" as="targetPoint" />
          </mxGeometry>
        </mxCell>
        <mxCell id="tb3_ySviJ2jezQwSwSDo-22" value="Màu đỏ: Số không liên quan giữa page Staff và các page khác&lt;br&gt;Nhưng sẽ đúng ý nghĩa cho 2 rule:&lt;br&gt;Client Partner + Reporting Manager" style="rounded=0;whiteSpace=wrap;html=1;" vertex="1" parent="1">
          <mxGeometry x="520" y="90" width="220" height="70" as="geometry" />
        </mxCell>
      </root>
    </mxGraphModel>
  </diagram>
</mxfile>
